<svg xmlns="http://www.w3.org/2000/svg" width="24px" height="48px" viewBox="0 0 24 48"><title>flux-capacitor-sprite</title><path d="M18.41,3H5.59A2.57,2.57,0,0,0,3,5.59Q3,12,3,18.41a2.73,2.73,0,0,0,.1.73A2.54,2.54,0,0,0,5.55,21h12.9A2.57,2.57,0,0,0,21,18.47Q21,12,21,5.59A2.56,2.56,0,0,0,18.41,3Zm.52,6.16a2.9,2.9,0,0,1-4,.19l-2,1.86a.3.3,0,0,0-.08.17.81.81,0,0,1-.39.62.2.2,0,0,0-.09.13c0,.62,0,1.24,0,1.88a2.86,2.86,0,0,1,2.23,1.5,2.78,2.78,0,0,1,.29,1.94A2.9,2.9,0,1,1,11.68,14c0-.21,0-.43,0-.65,0-.4,0-.79,0-1.19a.27.27,0,0,0-.1-.19.84.84,0,0,1-.36-.56.4.4,0,0,0-.1-.21l-2-1.87A2.86,2.86,0,0,1,6.68,10,2.82,2.82,0,0,1,5,9,2.9,2.9,0,0,1,8.82,4.79a2.92,2.92,0,0,1,.72,4.09l2,1.8a.84.84,0,0,1,1,0l2-1.8a2.87,2.87,0,0,1-.4-2.58,2.81,2.81,0,0,1,1.27-1.6,2.9,2.9,0,0,1,3.59,4.47Z" style="fill:#bbb"/><path d="M15.43,5.41a2.23,2.23,0,0,0-.47,3c.2-.18.38-.36.57-.52a.23.23,0,0,0,.08-.31,1.19,1.19,0,0,1,.29-1.31A1.22,1.22,0,0,1,17.23,6a1.29,1.29,0,1,1-1,2.38c-.06,0-.16-.07-.19,0-.23.19-.44.4-.66.6a2.22,2.22,0,0,0,3-.15,2.25,2.25,0,0,0-3-3.33Z" style="fill:#bbb"/><path d="M12,18.18a1.29,1.29,0,0,1-1.28-1,1.31,1.31,0,0,1,.93-1.51V14.7a2.18,2.18,0,0,0-1.92,2.24,2.25,2.25,0,1,0,4.49-.11,2.19,2.19,0,0,0-1.91-2.13v.94A1.29,1.29,0,0,1,12,18.18Z" style="fill:#bbb"/><path d="M8.56,5.4A2.25,2.25,0,0,0,5.62,8.79a2.2,2.2,0,0,0,3,.1c-.18-.17-.36-.32-.52-.49a.26.26,0,0,0-.36-.06A1.26,1.26,0,0,1,6.22,8,1.29,1.29,0,1,1,8.39,7.6a.27.27,0,0,0,0,.22c.2.21.42.39.63.59A2.23,2.23,0,0,0,8.56,5.4Z" style="fill:#bbb"/><path d="M18.41,27H5.59A2.57,2.57,0,0,0,3,29.59Q3,36,3,42.41a2.73,2.73,0,0,0,.1.73A2.54,2.54,0,0,0,5.55,45h12.9A2.57,2.57,0,0,0,21,42.47Q21,36,21,29.59A2.56,2.56,0,0,0,18.41,27Zm.52,6.16a2.9,2.9,0,0,1-4,.19l-2,1.86a.3.3,0,0,0-.08.17.81.81,0,0,1-.39.62.2.2,0,0,0-.09.13c0,.62,0,1.24,0,1.88a2.86,2.86,0,0,1,2.23,1.5,2.78,2.78,0,0,1,.29,1.94A2.9,2.9,0,1,1,11.68,38c0-.21,0-.43,0-.65,0-.4,0-.79,0-1.19a.27.27,0,0,0-.1-.19.84.84,0,0,1-.36-.56.4.4,0,0,0-.1-.21l-2-1.87A2.86,2.86,0,0,1,6.68,34,2.82,2.82,0,0,1,5,33a2.9,2.9,0,0,1,3.86-4.25,2.92,2.92,0,0,1,.72,4.09l2,1.8a.84.84,0,0,1,1,0l2-1.8a2.87,2.87,0,0,1-.4-2.58,2.81,2.81,0,0,1,1.27-1.6,2.9,2.9,0,0,1,3.59,4.47Z" style="fill:#78b2f2"/><path d="M15.43,29.41a2.23,2.23,0,0,0-.47,3c.2-.18.38-.36.57-.52a.23.23,0,0,0,.08-.31,1.19,1.19,0,0,1,.29-1.31A1.22,1.22,0,0,1,17.23,30a1.29,1.29,0,1,1-1,2.38c-.06,0-.16-.07-.19,0-.23.19-.44.4-.66.6a2.22,2.22,0,0,0,3-.15,2.25,2.25,0,0,0-3-3.33Z" style="fill:#78b2f2"/><path d="M12,42.18a1.29,1.29,0,0,1-1.28-1,1.31,1.31,0,0,1,.93-1.51V38.7a2.18,2.18,0,0,0-1.92,2.24,2.25,2.25,0,1,0,4.49-.11,2.19,2.19,0,0,0-1.91-2.13v.94A1.29,1.29,0,0,1,12,42.18Z" style="fill:#78b2f2"/><path d="M8.56,29.4a2.25,2.25,0,0,0-2.94,3.39,2.2,2.2,0,0,0,3,.1c-.18-.17-.36-.32-.52-.49a.26.26,0,0,0-.36-.06A1.26,1.26,0,0,1,6.22,32a1.29,1.29,0,1,1,2.17-.44.27.27,0,0,0,0,.22c.2.21.42.39.63.59A2.23,2.23,0,0,0,8.56,29.4Z" style="fill:#78b2f2"/></svg>